<svg width="60" height="60" viewBox="0 0 60 60" fill="none" xmlns="http://www.w3.org/2000/svg">
<path d="M3.344 52.224H7.024V54H1.104V42.832H3.344V52.224ZM12.3838 54.144C11.5304 54.144 10.7624 53.9573 10.0798 53.584C9.39708 53.2 8.85842 52.6613 8.46375 51.968C8.07975 51.2747 7.88775 50.4747 7.88775 49.568C7.88775 48.6613 8.08508 47.8613 8.47975 47.168C8.88508 46.4747 9.43442 45.9413 10.1278 45.568C10.8211 45.184 11.5944 44.992 12.4478 44.992C13.3011 44.992 14.0744 45.184 14.7678 45.568C15.4611 45.9413 16.0051 46.4747 16.3998 47.168C16.8051 47.8613 17.0078 48.6613 17.0078 49.568C17.0078 50.4747 16.7998 51.2747 16.3837 51.968C15.9784 52.6613 15.4238 53.2 14.7198 53.584C14.0264 53.9573 13.2478 54.144 12.3838 54.144ZM12.3838 52.192C12.7891 52.192 13.1678 52.096 13.5198 51.904C13.8824 51.7013 14.1704 51.4027 14.3838 51.008C14.5971 50.6133 14.7038 50.1333 14.7038 49.568C14.7038 48.7253 14.4798 48.08 14.0318 47.632C13.5944 47.1733 13.0558 46.944 12.4158 46.944C11.7758 46.944 11.2371 47.1733 10.7998 47.632C10.3731 48.08 10.1598 48.7253 10.1598 49.568C10.1598 50.4107 10.3678 51.0613 10.7838 51.52C11.2104 51.968 11.7438 52.192 12.3838 52.192ZM22.1229 44.992C22.7842 44.992 23.3655 45.1253 23.8669 45.392C24.3682 45.648 24.7629 45.984 25.0509 46.4V45.136H27.3069V54.064C27.3069 54.8853 27.1415 55.616 26.8109 56.256C26.4802 56.9067 25.9842 57.4187 25.3229 57.792C24.6615 58.176 23.8615 58.368 22.9229 58.368C21.6642 58.368 20.6295 58.0747 19.8189 57.488C19.0189 56.9013 18.5655 56.1013 18.4589 55.088H20.6829C20.8002 55.4933 21.0509 55.8133 21.4349 56.048C21.8295 56.2933 22.3042 56.416 22.8589 56.416C23.5095 56.416 24.0375 56.2187 24.4429 55.824C24.8482 55.44 25.0509 54.8533 25.0509 54.064V52.688C24.7629 53.104 24.3629 53.4507 23.8509 53.728C23.3495 54.0053 22.7735 54.144 22.1229 54.144C21.3762 54.144 20.6935 53.952 20.0749 53.568C19.4562 53.184 18.9655 52.6453 18.6029 51.952C18.2509 51.248 18.0749 50.4427 18.0749 49.536C18.0749 48.64 18.2509 47.8453 18.6029 47.152C18.9655 46.4587 19.4509 45.9253 20.0589 45.552C20.6775 45.1787 21.3655 44.992 22.1229 44.992ZM25.0509 49.568C25.0509 49.024 24.9442 48.56 24.7309 48.176C24.5175 47.7813 24.2295 47.4827 23.8669 47.28C23.5042 47.0667 23.1149 46.96 22.6989 46.96C22.2829 46.96 21.8989 47.0613 21.5469 47.264C21.1949 47.4667 20.9069 47.7653 20.6829 48.16C20.4695 48.544 20.3629 49.0027 20.3629 49.536C20.3629 50.0693 20.4695 50.5387 20.6829 50.944C20.9069 51.3387 21.1949 51.6427 21.5469 51.856C21.9095 52.0693 22.2935 52.176 22.6989 52.176C23.1149 52.176 23.5042 52.0747 23.8669 51.872C24.2295 51.6587 24.5175 51.36 24.7309 50.976C24.9442 50.5813 25.0509 50.112 25.0509 49.568ZM37.2431 54.144C36.3898 54.144 35.6218 53.9573 34.9391 53.584C34.2565 53.2 33.7178 52.6613 33.3231 51.968C32.9391 51.2747 32.7471 50.4747 32.7471 49.568C32.7471 48.6613 32.9445 47.8613 33.3391 47.168C33.7445 46.4747 34.2938 45.9413 34.9871 45.568C35.6805 45.184 36.4538 44.992 37.3071 44.992C38.1605 44.992 38.9338 45.184 39.6271 45.568C40.3205 45.9413 40.8645 46.4747 41.2591 47.168C41.6645 47.8613 41.8671 48.6613 41.8671 49.568C41.8671 50.4747 41.6591 51.2747 41.2431 51.968C40.8378 52.6613 40.2831 53.2 39.5791 53.584C38.8858 53.9573 38.1071 54.144 37.2431 54.144ZM37.2431 52.192C37.6485 52.192 38.0271 52.096 38.3791 51.904C38.7418 51.7013 39.0298 51.4027 39.2431 51.008C39.4565 50.6133 39.5631 50.1333 39.5631 49.568C39.5631 48.7253 39.3391 48.08 38.8911 47.632C38.4538 47.1733 37.9151 46.944 37.2751 46.944C36.6351 46.944 36.0965 47.1733 35.6591 47.632C35.2325 48.08 35.0191 48.7253 35.0191 49.568C35.0191 50.4107 35.2271 51.0613 35.6431 51.52C36.0698 51.968 36.6031 52.192 37.2431 52.192ZM51.8783 45.136V54H49.6223V52.88C49.3343 53.264 48.9556 53.568 48.4863 53.792C48.0276 54.0053 47.5263 54.112 46.9823 54.112C46.2889 54.112 45.6756 53.968 45.1423 53.68C44.6089 53.3813 44.1876 52.9493 43.8783 52.384C43.5796 51.808 43.4303 51.1253 43.4303 50.336V45.136H45.6703V50.016C45.6703 50.72 45.8463 51.264 46.1983 51.648C46.5503 52.0213 47.0303 52.208 47.6383 52.208C48.2569 52.208 48.7423 52.0213 49.0943 51.648C49.4463 51.264 49.6223 50.72 49.6223 50.016V45.136H51.8783ZM56.6964 46.976V51.264C56.6964 51.5627 56.7657 51.7813 56.9044 51.92C57.0537 52.048 57.299 52.112 57.6404 52.112H58.6804V54H57.2724C55.3844 54 54.4404 53.0827 54.4404 51.248V46.976H53.3844V45.136H54.4404V42.944H56.6964V45.136H58.6804V46.976H56.6964Z" fill="white"/>
<path d="M40.6613 3.81754C45.1069 6.99294 48 12.1865 48 18.0645C48 27.7177 40.1815 35.5433 30.5353 35.5645C20.9032 35.5857 13.0141 27.7318 13 18.0927C12.993 12.2147 15.8861 7.00705 20.3246 3.8246C21.1502 3.23891 22.3004 3.48589 22.7944 4.36794L23.9093 6.3508C24.3256 7.09173 24.128 8.03024 23.4436 8.5383C20.5151 10.7117 18.6452 14.1552 18.6452 18.0575C18.6381 24.5706 23.9022 29.9193 30.5 29.9193C36.9637 29.9193 42.3972 24.6835 42.3548 17.9869C42.3337 14.3316 40.6119 10.8034 37.5494 8.53125C36.8649 8.02318 36.6744 7.08467 37.0907 6.3508L38.2057 4.36794C38.6996 3.49294 39.8427 3.23185 40.6613 3.81754ZM33.3226 18.629V1.69355C33.3226 0.75504 32.5675 0 31.629 0H29.371C28.4325 0 27.6774 0.75504 27.6774 1.69355V18.629C27.6774 19.5675 28.4325 20.3226 29.371 20.3226H31.629C32.5675 20.3226 33.3226 19.5675 33.3226 18.629Z" fill="white"/>
</svg>
