<svg width="91" height="68" viewBox="0 0 91 68" fill="none" xmlns="http://www.w3.org/2000/svg">
<path d="M32.375 2.1875C32.375 0.977539 31.3975 0 30.1875 0C28.9775 0 28 0.977539 28 2.1875V25.1562C28 28.1777 30.4473 30.625 33.4688 30.625H60.8125C62.0225 30.625 63 29.6475 63 28.4375C63 27.2275 62.0225 26.25 60.8125 26.25H33.4688C32.8672 26.25 32.375 25.7578 32.375 25.1562V2.1875ZM60.1699 8.10742C61.0244 7.25293 61.0244 5.86523 60.1699 5.01074C59.3154 4.15625 57.9277 4.15625 57.0732 5.01074L49.875 12.2158L45.9512 8.29199C45.0967 7.4375 43.709 7.4375 42.8545 8.29199L35.1982 15.9482C34.3438 16.8027 34.3438 18.1904 35.1982 19.0449C36.0527 19.8994 37.4404 19.8994 38.2949 19.0449L44.4062 12.9404L48.3301 16.8643C49.1846 17.7188 50.5723 17.7188 51.4268 16.8643L60.1768 8.11426L60.1699 8.10742Z" fill="white"/>
<path d="M5.008 50.832C6.18133 50.832 7.21067 51.0613 8.096 51.52C8.992 51.9787 9.68 52.6347 10.16 53.488C10.6507 54.3307 10.896 55.312 10.896 56.432C10.896 57.552 10.6507 58.5333 10.16 59.376C9.68 60.208 8.992 60.8533 8.096 61.312C7.21067 61.7707 6.18133 62 5.008 62H1.104V50.832H5.008ZM4.928 60.096C6.10133 60.096 7.008 59.776 7.648 59.136C8.288 58.496 8.608 57.5947 8.608 56.432C8.608 55.2693 8.288 54.3627 7.648 53.712C7.008 53.0507 6.10133 52.72 4.928 52.72H3.344V60.096H4.928ZM11.9967 57.536C11.9967 56.64 12.1727 55.8453 12.5247 55.152C12.8874 54.4587 13.3728 53.9253 13.9808 53.552C14.5994 53.1787 15.2874 52.992 16.0448 52.992C16.7061 52.992 17.2821 53.1253 17.7728 53.392C18.2741 53.6587 18.6741 53.9947 18.9728 54.4V53.136H21.2288V62H18.9728V60.704C18.6848 61.12 18.2848 61.4667 17.7728 61.744C17.2714 62.0107 16.6901 62.144 16.0288 62.144C15.2821 62.144 14.5994 61.952 13.9808 61.568C13.3728 61.184 12.8874 60.6453 12.5247 59.952C12.1727 59.248 11.9967 58.4427 11.9967 57.536ZM18.9728 57.568C18.9728 57.024 18.8661 56.56 18.6528 56.176C18.4394 55.7813 18.1514 55.4827 17.7888 55.28C17.4261 55.0667 17.0368 54.96 16.6208 54.96C16.2048 54.96 15.8208 55.0613 15.4688 55.264C15.1168 55.4667 14.8288 55.7653 14.6048 56.16C14.3914 56.544 14.2848 57.0027 14.2848 57.536C14.2848 58.0693 14.3914 58.5387 14.6048 58.944C14.8288 59.3387 15.1168 59.6427 15.4688 59.856C15.8314 60.0693 16.2154 60.176 16.6208 60.176C17.0368 60.176 17.4261 60.0747 17.7888 59.872C18.1514 59.6587 18.4394 59.36 18.6528 58.976C18.8661 58.5813 18.9728 58.112 18.9728 57.568ZM26.8085 62.144C26.0832 62.144 25.4325 62.016 24.8565 61.76C24.2805 61.4933 23.8218 61.136 23.4805 60.688C23.1498 60.24 22.9685 59.744 22.9365 59.2H25.1925C25.2352 59.5413 25.4005 59.824 25.6885 60.048C25.9872 60.272 26.3552 60.384 26.7925 60.384C27.2192 60.384 27.5498 60.2987 27.7845 60.128C28.0298 59.9573 28.1525 59.7387 28.1525 59.472C28.1525 59.184 28.0032 58.9707 27.7045 58.832C27.4165 58.6827 26.9525 58.5227 26.3125 58.352C25.6512 58.192 25.1072 58.0267 24.6805 57.856C24.2645 57.6853 23.9018 57.424 23.5925 57.072C23.2938 56.72 23.1445 56.2453 23.1445 55.648C23.1445 55.1573 23.2832 54.7093 23.5605 54.304C23.8485 53.8987 24.2538 53.5787 24.7765 53.344C25.3098 53.1093 25.9338 52.992 26.6485 52.992C27.7045 52.992 28.5472 53.2587 29.1765 53.792C29.8058 54.3147 30.1525 55.024 30.2165 55.92H28.0725C28.0405 55.568 27.8912 55.2907 27.6245 55.088C27.3685 54.8747 27.0218 54.768 26.5845 54.768C26.1792 54.768 25.8645 54.8427 25.6405 54.992C25.4272 55.1413 25.3205 55.3493 25.3205 55.616C25.3205 55.9147 25.4698 56.144 25.7685 56.304C26.0672 56.4533 26.5312 56.608 27.1605 56.768C27.8005 56.928 28.3285 57.0933 28.7445 57.264C29.1605 57.4347 29.5178 57.7013 29.8165 58.064C30.1258 58.416 30.2858 58.8853 30.2965 59.472C30.2965 59.984 30.1525 60.4427 29.8645 60.848C29.5872 61.2533 29.1818 61.5733 28.6485 61.808C28.1258 62.032 27.5125 62.144 26.8085 62.144ZM37.1273 53.008C37.7993 53.008 38.3966 53.1573 38.9193 53.456C39.4419 53.744 39.8473 54.176 40.1353 54.752C40.4339 55.3173 40.5833 56 40.5833 56.8V62H38.3433V57.104C38.3433 56.4 38.1673 55.8613 37.8153 55.488C37.4633 55.104 36.9833 54.912 36.3753 54.912C35.7566 54.912 35.2659 55.104 34.9033 55.488C34.5513 55.8613 34.3753 56.4 34.3753 57.104V62H32.1353V50.16H34.3753V54.24C34.6633 53.856 35.0473 53.5573 35.5273 53.344C36.0073 53.12 36.5406 53.008 37.1273 53.008ZM44.9534 54.432C45.2414 54.0053 45.636 53.6587 46.1374 53.392C46.6494 53.1253 47.2307 52.992 47.8814 52.992C48.6387 52.992 49.3214 53.1787 49.9294 53.552C50.548 53.9253 51.0334 54.4587 51.3854 55.152C51.748 55.8347 51.9294 56.6293 51.9294 57.536C51.9294 58.4427 51.748 59.248 51.3854 59.952C51.0334 60.6453 50.548 61.184 49.9294 61.568C49.3214 61.952 48.6387 62.144 47.8814 62.144C47.22 62.144 46.6387 62.016 46.1374 61.76C45.6467 61.4933 45.252 61.152 44.9534 60.736V62H42.7134V50.16H44.9534V54.432ZM49.6414 57.536C49.6414 57.0027 49.5294 56.544 49.3054 56.16C49.092 55.7653 48.804 55.4667 48.4414 55.264C48.0894 55.0613 47.7054 54.96 47.2894 54.96C46.884 54.96 46.5 55.0667 46.1374 55.28C45.7854 55.4827 45.4974 55.7813 45.2734 56.176C45.06 56.5707 44.9534 57.0347 44.9534 57.568C44.9534 58.1013 45.06 58.5653 45.2734 58.96C45.4974 59.3547 45.7854 59.6587 46.1374 59.872C46.5 60.0747 46.884 60.176 47.2894 60.176C47.7054 60.176 48.0894 60.0693 48.4414 59.856C48.804 59.6427 49.092 59.3387 49.3054 58.944C49.5294 58.5493 49.6414 58.08 49.6414 57.536ZM57.4931 62.144C56.6398 62.144 55.8718 61.9573 55.1891 61.584C54.5065 61.2 53.9678 60.6613 53.5731 59.968C53.1891 59.2747 52.9971 58.4747 52.9971 57.568C52.9971 56.6613 53.1945 55.8613 53.5891 55.168C53.9945 54.4747 54.5438 53.9413 55.2371 53.568C55.9305 53.184 56.7038 52.992 57.5571 52.992C58.4105 52.992 59.1838 53.184 59.8771 53.568C60.5705 53.9413 61.1145 54.4747 61.5091 55.168C61.9145 55.8613 62.1171 56.6613 62.1171 57.568C62.1171 58.4747 61.9091 59.2747 61.4931 59.968C61.0878 60.6613 60.5331 61.2 59.8291 61.584C59.1358 61.9573 58.3571 62.144 57.4931 62.144ZM57.4931 60.192C57.8985 60.192 58.2771 60.096 58.6291 59.904C58.9918 59.7013 59.2798 59.4027 59.4931 59.008C59.7065 58.6133 59.8131 58.1333 59.8131 57.568C59.8131 56.7253 59.5891 56.08 59.1411 55.632C58.7038 55.1733 58.1651 54.944 57.5251 54.944C56.8851 54.944 56.3465 55.1733 55.9091 55.632C55.4825 56.08 55.2691 56.7253 55.2691 57.568C55.2691 58.4107 55.4771 59.0613 55.8931 59.52C56.3198 59.968 56.8531 60.192 57.4931 60.192ZM63.1842 57.536C63.1842 56.64 63.3602 55.8453 63.7122 55.152C64.0749 54.4587 64.5603 53.9253 65.1683 53.552C65.7869 53.1787 66.4749 52.992 67.2323 52.992C67.8936 52.992 68.4696 53.1253 68.9603 53.392C69.4616 53.6587 69.8616 53.9947 70.1603 54.4V53.136H72.4163V62H70.1603V60.704C69.8723 61.12 69.4723 61.4667 68.9603 61.744C68.4589 62.0107 67.8776 62.144 67.2163 62.144C66.4696 62.144 65.7869 61.952 65.1683 61.568C64.5603 61.184 64.0749 60.6453 63.7122 59.952C63.3602 59.248 63.1842 58.4427 63.1842 57.536ZM70.1603 57.568C70.1603 57.024 70.0536 56.56 69.8403 56.176C69.6269 55.7813 69.3389 55.4827 68.9763 55.28C68.6136 55.0667 68.2243 54.96 67.8083 54.96C67.3923 54.96 67.0083 55.0613 66.6562 55.264C66.3043 55.4667 66.0163 55.7653 65.7923 56.16C65.5789 56.544 65.4723 57.0027 65.4723 57.536C65.4723 58.0693 65.5789 58.5387 65.7923 58.944C66.0163 59.3387 66.3043 59.6427 66.6562 59.856C67.0189 60.0693 67.4029 60.176 67.8083 60.176C68.2243 60.176 68.6136 60.0747 68.9763 59.872C69.3389 59.6587 69.6269 59.36 69.8403 58.976C70.0536 58.5813 70.1603 58.112 70.1603 57.568ZM76.844 54.512C77.132 54.0427 77.5053 53.6747 77.964 53.408C78.4333 53.1413 78.9667 53.008 79.564 53.008V55.36H78.972C78.268 55.36 77.7347 55.5253 77.372 55.856C77.02 56.1867 76.844 56.7627 76.844 57.584V62H74.604V53.136H76.844V54.512ZM80.4967 57.536C80.4967 56.64 80.6727 55.8453 81.0247 55.152C81.3874 54.4587 81.8781 53.9253 82.4968 53.552C83.1154 53.1787 83.8034 52.992 84.5608 52.992C85.1368 52.992 85.6861 53.12 86.2088 53.376C86.7314 53.6213 87.1474 53.952 87.4568 54.368V50.16H89.7288V62H87.4568V60.688C87.1794 61.1253 86.7901 61.4773 86.2888 61.744C85.7874 62.0107 85.2061 62.144 84.5448 62.144C83.7981 62.144 83.1154 61.952 82.4968 61.568C81.8781 61.184 81.3874 60.6453 81.0247 59.952C80.6727 59.248 80.4967 58.4427 80.4967 57.536ZM87.4728 57.568C87.4728 57.024 87.3661 56.56 87.1528 56.176C86.9394 55.7813 86.6514 55.4827 86.2888 55.28C85.9261 55.0667 85.5368 54.96 85.1208 54.96C84.7048 54.96 84.3208 55.0613 83.9688 55.264C83.6168 55.4667 83.3288 55.7653 83.1048 56.16C82.8914 56.544 82.7848 57.0027 82.7848 57.536C82.7848 58.0693 82.8914 58.5387 83.1048 58.944C83.3288 59.3387 83.6168 59.6427 83.9688 59.856C84.3314 60.0693 84.7154 60.176 85.1208 60.176C85.5368 60.176 85.9261 60.0747 86.2888 59.872C86.6514 59.6587 86.9394 59.36 87.1528 58.976C87.3661 58.5813 87.4728 58.112 87.4728 57.568Z" fill="white"/>
</svg>
