<svg width="58" height="70" viewBox="0 0 58 70" fill="none" xmlns="http://www.w3.org/2000/svg">
<path d="M17.127 5.12695L14.8027 2.80273C13.7705 1.77051 12 2.50195 12 3.95801V11.4844C12 12.3936 12.7314 13.125 13.6406 13.125H21.167C22.6299 13.125 23.3613 11.3545 22.3291 10.3223L20.2236 8.2168C22.5957 5.84473 25.877 4.375 29.5 4.375C36.7461 4.375 42.625 10.2539 42.625 17.5C42.625 24.7461 36.7461 30.625 29.5 30.625C26.7109 30.625 24.127 29.7568 22.001 28.2734C21.0098 27.583 19.6494 27.8223 18.9521 28.8135C18.2549 29.8047 18.501 31.165 19.4922 31.8623C22.3359 33.8379 25.7881 35 29.5 35C39.166 35 47 27.166 47 17.5C47 7.83398 39.166 0 29.5 0C24.667 0 20.292 1.96191 17.127 5.12695ZM29.5 8.75C28.5908 8.75 27.8594 9.48145 27.8594 10.3906V17.5C27.8594 17.9375 28.0303 18.3545 28.3379 18.6621L33.2598 23.584C33.9023 24.2266 34.9414 24.2266 35.5771 23.584C36.2129 22.9414 36.2197 21.9023 35.5771 21.2666L31.1338 16.8232V10.3906C31.1338 9.48145 30.4023 8.75 29.4932 8.75H29.5Z" fill="white"/>
<path d="M10.368 52.832V64H8.128V59.248H3.344V64H1.104V52.832H3.344V57.424H8.128V52.832H10.368ZM13.7088 54.08C13.3141 54.08 12.9834 53.9573 12.7168 53.712C12.4608 53.456 12.3328 53.1413 12.3328 52.768C12.3328 52.3947 12.4608 52.0853 12.7168 51.84C12.9834 51.584 13.3141 51.456 13.7088 51.456C14.1034 51.456 14.4288 51.584 14.6848 51.84C14.9514 52.0853 15.0848 52.3947 15.0848 52.768C15.0848 53.1413 14.9514 53.456 14.6848 53.712C14.4288 53.9573 14.1034 54.08 13.7088 54.08ZM14.8128 55.136V64H12.5728V55.136H14.8128ZM20.4179 64.144C19.6925 64.144 19.0419 64.016 18.4659 63.76C17.8899 63.4933 17.4312 63.136 17.0899 62.688C16.7592 62.24 16.5779 61.744 16.5459 61.2H18.8019C18.8445 61.5413 19.0099 61.824 19.2979 62.048C19.5965 62.272 19.9645 62.384 20.4019 62.384C20.8285 62.384 21.1592 62.2987 21.3939 62.128C21.6392 61.9573 21.7619 61.7387 21.7619 61.472C21.7619 61.184 21.6125 60.9707 21.3139 60.832C21.0259 60.6827 20.5619 60.5227 19.9219 60.352C19.2605 60.192 18.7165 60.0267 18.2899 59.856C17.8739 59.6853 17.5112 59.424 17.2019 59.072C16.9032 58.72 16.7539 58.2453 16.7539 57.648C16.7539 57.1573 16.8925 56.7093 17.1699 56.304C17.4579 55.8987 17.8632 55.5787 18.3859 55.344C18.9192 55.1093 19.5432 54.992 20.2579 54.992C21.3139 54.992 22.1565 55.2587 22.7859 55.792C23.4152 56.3147 23.7619 57.024 23.8259 57.92H21.6819C21.6499 57.568 21.5005 57.2907 21.2339 57.088C20.9779 56.8747 20.6312 56.768 20.1939 56.768C19.7885 56.768 19.4739 56.8427 19.2499 56.992C19.0365 57.1413 18.9299 57.3493 18.9299 57.616C18.9299 57.9147 19.0792 58.144 19.3779 58.304C19.6765 58.4533 20.1405 58.608 20.7699 58.768C21.4099 58.928 21.9379 59.0933 22.3539 59.264C22.7699 59.4347 23.1272 59.7013 23.4259 60.064C23.7352 60.416 23.8952 60.8853 23.9059 61.472C23.9059 61.984 23.7619 62.4427 23.4739 62.848C23.1965 63.2533 22.7912 63.5733 22.2579 63.808C21.7352 64.032 21.1219 64.144 20.4179 64.144ZM28.3526 56.976V61.264C28.3526 61.5627 28.422 61.7813 28.5606 61.92C28.71 62.048 28.9553 62.112 29.2966 62.112H30.3366V64H28.9286C27.0406 64 26.0966 63.0827 26.0966 61.248V56.976H25.0406V55.136H26.0966V52.944H28.3526V55.136H30.3366V56.976H28.3526ZM35.8838 64.144C35.0304 64.144 34.2624 63.9573 33.5798 63.584C32.8971 63.2 32.3584 62.6613 31.9638 61.968C31.5798 61.2747 31.3878 60.4747 31.3878 59.568C31.3878 58.6613 31.5851 57.8613 31.9798 57.168C32.3851 56.4747 32.9344 55.9413 33.6278 55.568C34.3211 55.184 35.0944 54.992 35.9478 54.992C36.8011 54.992 37.5744 55.184 38.2678 55.568C38.9611 55.9413 39.5051 56.4747 39.8998 57.168C40.3051 57.8613 40.5078 58.6613 40.5078 59.568C40.5078 60.4747 40.2998 61.2747 39.8837 61.968C39.4784 62.6613 38.9238 63.2 38.2198 63.584C37.5264 63.9573 36.7478 64.144 35.8838 64.144ZM35.8838 62.192C36.2891 62.192 36.6678 62.096 37.0198 61.904C37.3824 61.7013 37.6704 61.4027 37.8838 61.008C38.0971 60.6133 38.2038 60.1333 38.2038 59.568C38.2038 58.7253 37.9798 58.08 37.5318 57.632C37.0944 57.1733 36.5558 56.944 35.9158 56.944C35.2758 56.944 34.7371 57.1733 34.2998 57.632C33.8731 58.08 33.6598 58.7253 33.6598 59.568C33.6598 60.4107 33.8678 61.0613 34.2838 61.52C34.7104 61.968 35.2438 62.192 35.8838 62.192ZM44.3909 56.512C44.6789 56.0427 45.0522 55.6747 45.5109 55.408C45.9802 55.1413 46.5135 55.008 47.1109 55.008V57.36H46.5189C45.8149 57.36 45.2815 57.5253 44.9189 57.856C44.5669 58.1867 44.3909 58.7627 44.3909 59.584V64H42.1509V55.136H44.3909V56.512ZM57.0996 55.136L51.6116 68.192H49.2276L51.1476 63.776L47.5956 55.136H50.1076L52.3956 61.328L54.7156 55.136H57.0996Z" fill="white"/>
</svg>
