<svg width="54" height="68" viewBox="0 0 54 68" fill="none" xmlns="http://www.w3.org/2000/svg">
<path d="M10.368 50.832V62H8.128V57.248H3.344V62H1.104V50.832H3.344V55.424H8.128V50.832H10.368ZM20.8128 57.376C20.8128 57.696 20.7914 57.984 20.7488 58.24H14.2688C14.3221 58.88 14.5461 59.3813 14.9408 59.744C15.3354 60.1067 15.8208 60.288 16.3968 60.288C17.2288 60.288 17.8208 59.9307 18.1728 59.216H20.5888C20.3328 60.0693 19.8421 60.7733 19.1168 61.328C18.3914 61.872 17.5008 62.144 16.4448 62.144C15.5914 62.144 14.8234 61.9573 14.1408 61.584C13.4688 61.2 12.9408 60.6613 12.5568 59.968C12.1834 59.2747 11.9967 58.4747 11.9967 57.568C11.9967 56.6507 12.1834 55.8453 12.5568 55.152C12.9301 54.4587 13.4528 53.9253 14.1248 53.552C14.7968 53.1787 15.5701 52.992 16.4448 52.992C17.2874 52.992 18.0394 53.1733 18.7008 53.536C19.3728 53.8987 19.8901 54.416 20.2528 55.088C20.6261 55.7493 20.8128 56.512 20.8128 57.376ZM18.4928 56.736C18.4821 56.16 18.2741 55.7013 17.8688 55.36C17.4634 55.008 16.9674 54.832 16.3808 54.832C15.8261 54.832 15.3568 55.0027 14.9728 55.344C14.5994 55.6747 14.3701 56.1387 14.2848 56.736H18.4928ZM21.8717 57.536C21.8717 56.64 22.0477 55.8453 22.3997 55.152C22.7624 54.4587 23.2478 53.9253 23.8558 53.552C24.4744 53.1787 25.1624 52.992 25.9198 52.992C26.5811 52.992 27.1571 53.1253 27.6478 53.392C28.1491 53.6587 28.5491 53.9947 28.8478 54.4V53.136H31.1038V62H28.8478V60.704C28.5598 61.12 28.1598 61.4667 27.6478 61.744C27.1464 62.0107 26.5651 62.144 25.9038 62.144C25.1571 62.144 24.4744 61.952 23.8558 61.568C23.2478 61.184 22.7624 60.6453 22.3997 59.952C22.0477 59.248 21.8717 58.4427 21.8717 57.536ZM28.8478 57.568C28.8478 57.024 28.7411 56.56 28.5278 56.176C28.3144 55.7813 28.0264 55.4827 27.6638 55.28C27.3011 55.0667 26.9118 54.96 26.4958 54.96C26.0798 54.96 25.6958 55.0613 25.3438 55.264C24.9918 55.4667 24.7038 55.7653 24.4798 56.16C24.2664 56.544 24.1598 57.0027 24.1598 57.536C24.1598 58.0693 24.2664 58.5387 24.4798 58.944C24.7038 59.3387 24.9918 59.6427 25.3438 59.856C25.7064 60.0693 26.0904 60.176 26.4958 60.176C26.9118 60.176 27.3011 60.0747 27.6638 59.872C28.0264 59.6587 28.3144 59.36 28.5278 58.976C28.7411 58.5813 28.8478 58.112 28.8478 57.568ZM35.5315 50.16V62H33.2915V50.16H35.5315ZM40.3526 54.976V59.264C40.3526 59.5627 40.422 59.7813 40.5606 59.92C40.71 60.048 40.9553 60.112 41.2966 60.112H42.3366V62H40.9286C39.0406 62 38.0966 61.0827 38.0966 59.248V54.976H37.0406V53.136H38.0966V50.944H40.3526V53.136H42.3366V54.976H40.3526ZM48.9398 53.008C49.6118 53.008 50.2091 53.1573 50.7318 53.456C51.2544 53.744 51.6598 54.176 51.9478 54.752C52.2464 55.3173 52.3958 56 52.3958 56.8V62H50.1558V57.104C50.1558 56.4 49.9798 55.8613 49.6278 55.488C49.2758 55.104 48.7958 54.912 48.1878 54.912C47.5691 54.912 47.0784 55.104 46.7158 55.488C46.3638 55.8613 46.1878 56.4 46.1878 57.104V62H43.9478V50.16H46.1878V54.24C46.4758 53.856 46.8598 53.5573 47.3398 53.344C47.8198 53.12 48.3531 53.008 48.9398 53.008Z" fill="white"/>
<path d="M20.7144 17.2904C20.7144 14.99 22.2359 12.8569 24.3193 12.8569C25.765 12.8569 26.8379 13.814 27.5001 15.1716C28.1623 13.8141 29.235 12.8569 30.6809 12.8569C32.7645 12.8569 34.2858 14.9904 34.2858 17.2904C34.2858 22.214 27.5001 25.7141 27.5001 25.7141C27.5001 25.7141 22.9292 23.4991 21.2904 19.8658C21.1728 19.6052 21.0704 19.3372 20.9857 19.0623C20.8127 18.5001 20.7144 17.9086 20.7144 17.2904Z" fill="white"/>
<path fill-rule="evenodd" clip-rule="evenodd" d="M44.7164 15.8488L27.5563 0L10.2859 15.8467C9.90559 16.1957 9.90458 16.7623 10.2836 17.1124C10.6627 17.4625 11.2783 17.4634 11.6586 17.1145L13.8889 15.068V31.2479C13.8889 31.7422 14.3242 32.1429 14.8611 32.1429H40.1389C40.6759 32.1429 41.1111 31.7422 41.1111 31.2479V15.0546L43.3392 17.1124C43.7182 17.4625 44.3339 17.4634 44.7141 17.1145C45.0944 16.7655 45.0954 16.1989 44.7164 15.8488ZM27.5518 2.53143L39.1667 13.2588V30.3529H15.8333V13.2839L27.5518 2.53143Z" fill="white"/>
</svg>
