<svg width="67" height="60" viewBox="0 0 67 60" fill="none" xmlns="http://www.w3.org/2000/svg">
<path d="M50.903 12.0831C51.1351 12.7141 50.9392 13.4176 50.4388 13.8673L47.2984 16.7248C47.3781 17.3268 47.4217 17.9433 47.4217 18.567C47.4217 19.1908 47.3781 19.8073 47.2984 20.4092L50.4388 23.2668C50.9392 23.7165 51.1351 24.42 50.903 25.051C50.5839 25.9141 50.1995 26.7409 49.757 27.5387L49.4162 28.1262C48.9375 28.924 48.4008 29.6783 47.8133 30.389C47.3854 30.9112 46.6746 31.0853 46.0364 30.8822L41.9966 29.5985C41.0247 30.3455 39.9513 30.9692 38.8054 31.4407L37.8988 35.582C37.7537 36.242 37.246 36.7642 36.5788 36.873C35.5779 37.0398 34.548 37.1268 33.4964 37.1268C32.4447 37.1268 31.4148 37.0398 30.414 36.873C29.7467 36.7642 29.239 36.242 29.094 35.582L28.1874 31.4407C27.0414 30.9692 25.968 30.3455 24.9961 29.5985L20.9636 30.8895C20.3254 31.0925 19.6146 30.9112 19.1867 30.3963C18.5992 29.6855 18.0625 28.9312 17.5838 28.1334L17.243 27.5459C16.8005 26.7481 16.4161 25.9213 16.097 25.0583C15.8649 24.4273 16.0608 23.7237 16.5612 23.2741L19.7016 20.4165C19.6219 19.8073 19.5783 19.1908 19.5783 18.567C19.5783 17.9433 19.6219 17.3268 19.7016 16.7248L16.5612 13.8673C16.0608 13.4176 15.8649 12.7141 16.097 12.0831C16.4161 11.22 16.8005 10.3932 17.243 9.59539L17.5838 9.00792C18.0625 8.21011 18.5992 7.45583 19.1867 6.74506C19.6146 6.22286 20.3254 6.04879 20.9636 6.25187L25.0034 7.53561C25.9753 6.78857 27.0487 6.16484 28.1946 5.69341L29.1012 1.55209C29.2463 0.892088 29.754 0.36989 30.4212 0.261099C31.4221 0.087033 32.452 0 33.5036 0C34.5553 0 35.5852 0.087033 36.586 0.253846C37.2533 0.362638 37.761 0.884835 37.906 1.54484L38.8126 5.68616C39.9586 6.15759 41.032 6.78132 42.0039 7.52836L46.0436 6.24462C46.6819 6.04154 47.3926 6.22286 47.8206 6.73781C48.408 7.44858 48.9447 8.20286 49.4234 9.00066L49.7643 9.58814C50.2067 10.3859 50.5911 11.2128 50.9102 12.0758L50.903 12.0831ZM33.5036 24.3692C35.0425 24.3692 36.5183 23.7579 37.6064 22.6698C38.6945 21.5817 39.3058 20.1059 39.3058 18.567C39.3058 17.0282 38.6945 15.5524 37.6064 14.4643C36.5183 13.3761 35.0425 12.7648 33.5036 12.7648C31.9648 12.7648 30.489 13.3761 29.4009 14.4643C28.3127 15.5524 27.7014 17.0282 27.7014 18.567C27.7014 20.1059 28.3127 21.5817 29.4009 22.6698C30.489 23.7579 31.9648 24.3692 33.5036 24.3692Z" fill="white"/>
<path d="M4.96 54.112C4.18133 54.112 3.47733 53.9787 2.848 53.712C2.22933 53.4453 1.73867 53.0613 1.376 52.56C1.01333 52.0587 0.826667 51.4667 0.816 50.784H3.216C3.248 51.2427 3.408 51.6053 3.696 51.872C3.99467 52.1387 4.4 52.272 4.912 52.272C5.43467 52.272 5.84533 52.1493 6.144 51.904C6.44267 51.648 6.592 51.3173 6.592 50.912C6.592 50.5813 6.49067 50.3093 6.288 50.096C6.08533 49.8827 5.82933 49.7173 5.52 49.6C5.22133 49.472 4.80533 49.3333 4.272 49.184C3.54667 48.9707 2.95467 48.7627 2.496 48.56C2.048 48.3467 1.65867 48.032 1.328 47.616C1.008 47.1893 0.848 46.624 0.848 45.92C0.848 45.2587 1.01333 44.6827 1.344 44.192C1.67467 43.7013 2.13867 43.328 2.736 43.072C3.33333 42.8053 4.016 42.672 4.784 42.672C5.936 42.672 6.86933 42.9547 7.584 43.52C8.30933 44.0747 8.70933 44.8533 8.784 45.856H6.32C6.29867 45.472 6.13333 45.1573 5.824 44.912C5.52533 44.656 5.12533 44.528 4.624 44.528C4.18667 44.528 3.83467 44.64 3.568 44.864C3.312 45.088 3.184 45.4133 3.184 45.84C3.184 46.1387 3.28 46.3893 3.472 46.592C3.67467 46.784 3.92 46.944 4.208 47.072C4.50667 47.1893 4.92267 47.328 5.456 47.488C6.18133 47.7013 6.77333 47.9147 7.232 48.128C7.69067 48.3413 8.08533 48.6613 8.416 49.088C8.74667 49.5147 8.912 50.0747 8.912 50.768C8.912 51.3653 8.75733 51.92 8.448 52.432C8.13867 52.944 7.68533 53.3547 7.088 53.664C6.49067 53.9627 5.78133 54.112 4.96 54.112ZM19.094 49.376C19.094 49.696 19.0727 49.984 19.03 50.24H12.55C12.6033 50.88 12.8273 51.3813 13.222 51.744C13.6167 52.1067 14.102 52.288 14.678 52.288C15.51 52.288 16.102 51.9307 16.454 51.216H18.87C18.614 52.0693 18.1233 52.7733 17.398 53.328C16.6727 53.872 15.782 54.144 14.726 54.144C13.8727 54.144 13.1047 53.9573 12.422 53.584C11.75 53.2 11.222 52.6613 10.838 51.968C10.4647 51.2747 10.278 50.4747 10.278 49.568C10.278 48.6507 10.4647 47.8453 10.838 47.152C11.2113 46.4587 11.734 45.9253 12.406 45.552C13.078 45.1787 13.8513 44.992 14.726 44.992C15.5687 44.992 16.3207 45.1733 16.982 45.536C17.654 45.8987 18.1713 46.416 18.534 47.088C18.9073 47.7493 19.094 48.512 19.094 49.376ZM16.774 48.736C16.7633 48.16 16.5553 47.7013 16.15 47.36C15.7447 47.008 15.2487 46.832 14.662 46.832C14.1073 46.832 13.638 47.0027 13.254 47.344C12.8807 47.6747 12.6513 48.1387 12.566 48.736H16.774ZM23.337 46.976V51.264C23.337 51.5627 23.4063 51.7813 23.545 51.92C23.6943 52.048 23.9397 52.112 24.281 52.112H25.321V54H23.913C22.025 54 21.081 53.0827 21.081 51.248V46.976H20.025V45.136H21.081V42.944H23.337V45.136H25.321V46.976H23.337ZM29.5401 46.976V51.264C29.5401 51.5627 29.6095 51.7813 29.7481 51.92C29.8975 52.048 30.1428 52.112 30.4841 52.112H31.5241V54H30.1161C28.2281 54 27.2841 53.0827 27.2841 51.248V46.976H26.2281V45.136H27.2841V42.944H29.5401V45.136H31.5241V46.976H29.5401ZM34.2713 44.08C33.8766 44.08 33.5459 43.9573 33.2793 43.712C33.0233 43.456 32.8953 43.1413 32.8953 42.768C32.8953 42.3947 33.0233 42.0853 33.2793 41.84C33.5459 41.584 33.8766 41.456 34.2713 41.456C34.6659 41.456 34.9913 41.584 35.2473 41.84C35.5139 42.0853 35.6473 42.3947 35.6473 42.768C35.6473 43.1413 35.5139 43.456 35.2473 43.712C34.9913 43.9573 34.6659 44.08 34.2713 44.08ZM35.3753 45.136V54H33.1353V45.136H35.3753ZM42.5004 45.008C43.5564 45.008 44.4097 45.344 45.0604 46.016C45.711 46.6773 46.0364 47.6053 46.0364 48.8V54H43.7964V49.104C43.7964 48.4 43.6204 47.8613 43.2684 47.488C42.9164 47.104 42.4364 46.912 41.8284 46.912C41.2097 46.912 40.719 47.104 40.3564 47.488C40.0044 47.8613 39.8284 48.4 39.8284 49.104V54H37.5884V45.136H39.8284V46.24C40.127 45.856 40.5057 45.5573 40.9644 45.344C41.4337 45.12 41.9457 45.008 42.5004 45.008ZM51.6385 44.992C52.2998 44.992 52.8812 45.1253 53.3825 45.392C53.8838 45.648 54.2785 45.984 54.5665 46.4V45.136H56.8225V54.064C56.8225 54.8853 56.6572 55.616 56.3265 56.256C55.9958 56.9067 55.4998 57.4187 54.8385 57.792C54.1772 58.176 53.3772 58.368 52.4385 58.368C51.1798 58.368 50.1452 58.0747 49.3345 57.488C48.5345 56.9013 48.0812 56.1013 47.9745 55.088H50.1985C50.3158 55.4933 50.5665 55.8133 50.9505 56.048C51.3452 56.2933 51.8198 56.416 52.3745 56.416C53.0252 56.416 53.5532 56.2187 53.9585 55.824C54.3638 55.44 54.5665 54.8533 54.5665 54.064V52.688C54.2785 53.104 53.8785 53.4507 53.3665 53.728C52.8652 54.0053 52.2892 54.144 51.6385 54.144C50.8918 54.144 50.2092 53.952 49.5905 53.568C48.9718 53.184 48.4812 52.6453 48.1185 51.952C47.7665 51.248 47.5905 50.4427 47.5905 49.536C47.5905 48.64 47.7665 47.8453 48.1185 47.152C48.4812 46.4587 48.9665 45.9253 49.5745 45.552C50.1932 45.1787 50.8812 44.992 51.6385 44.992ZM54.5665 49.568C54.5665 49.024 54.4598 48.56 54.2465 48.176C54.0332 47.7813 53.7452 47.4827 53.3825 47.28C53.0198 47.0667 52.6305 46.96 52.2145 46.96C51.7985 46.96 51.4145 47.0613 51.0625 47.264C50.7105 47.4667 50.4225 47.7653 50.1985 48.16C49.9852 48.544 49.8785 49.0027 49.8785 49.536C49.8785 50.0693 49.9852 50.5387 50.1985 50.944C50.4225 51.3387 50.7105 51.6427 51.0625 51.856C51.4252 52.0693 51.8092 52.176 52.2145 52.176C52.6305 52.176 53.0198 52.0747 53.3825 51.872C53.7452 51.6587 54.0332 51.36 54.2465 50.976C54.4598 50.5813 54.5665 50.112 54.5665 49.568ZM62.4023 54.144C61.6769 54.144 61.0263 54.016 60.4503 53.76C59.8743 53.4933 59.4156 53.136 59.0743 52.688C58.7436 52.24 58.5623 51.744 58.5303 51.2H60.7863C60.8289 51.5413 60.9943 51.824 61.2823 52.048C61.5809 52.272 61.9489 52.384 62.3863 52.384C62.8129 52.384 63.1436 52.2987 63.3783 52.128C63.6236 51.9573 63.7463 51.7387 63.7463 51.472C63.7463 51.184 63.5969 50.9707 63.2983 50.832C63.0103 50.6827 62.5463 50.5227 61.9062 50.352C61.2449 50.192 60.7009 50.0267 60.2743 49.856C59.8583 49.6853 59.4956 49.424 59.1863 49.072C58.8876 48.72 58.7383 48.2453 58.7383 47.648C58.7383 47.1573 58.8769 46.7093 59.1543 46.304C59.4423 45.8987 59.8476 45.5787 60.3703 45.344C60.9036 45.1093 61.5276 44.992 62.2423 44.992C63.2983 44.992 64.1409 45.2587 64.7703 45.792C65.3996 46.3147 65.7463 47.024 65.8103 47.92H63.6663C63.6343 47.568 63.4849 47.2907 63.2183 47.088C62.9623 46.8747 62.6156 46.768 62.1783 46.768C61.7729 46.768 61.4583 46.8427 61.2343 46.992C61.0209 47.1413 60.9143 47.3493 60.9143 47.616C60.9143 47.9147 61.0636 48.144 61.3623 48.304C61.6609 48.4533 62.1249 48.608 62.7543 48.768C63.3943 48.928 63.9223 49.0933 64.3383 49.264C64.7543 49.4347 65.1116 49.7013 65.4103 50.064C65.7196 50.416 65.8796 50.8853 65.8903 51.472C65.8903 51.984 65.7463 52.4427 65.4583 52.848C65.1809 53.2533 64.7756 53.5733 64.2423 53.808C63.7196 54.032 63.1063 54.144 62.4023 54.144Z" fill="white"/>
</svg>
