<?xml version="1.0" encoding="UTF-8"?>
<svg xmlns="http://www.w3.org/2000/svg" viewBox="0 0 1178.42 1046.44">
  <defs>
    <style>
      .cls-1 {
        fill: #00adef;
      }

      .cls-2 {
        fill: #fff;
      }

      .cls-3 {
        fill: #f9a72b;
      }

      .cls-4 {
        fill: #2daf9c;
      }
    </style>
  </defs>
  <g id="Layer_3" data-name="Layer 3">
    <path class="cls-2" d="m627.87,175.76s-10.3.45-19.76,6.41c-14.2,8.96-18.2,45.05-5.54,88.45,2.51,5.02,5.02,10.04,7.53,15.06v130.7c-5.66,33.37-18.28,55.22-28.01,68.36-8.47,11.44-25.56,30.89-31.32,27.71-3.16-1.75-1.88-9.72-1.51-12.05,2.21-13.8,11.56-20.67,17.17-28.01,13.74-17.98,14.65-51.29-.9-68.06-13.94-15.03-37.48-12.84-42.76-12.35-9.68.9-20.91,4.21-43.07,20.48-26.45,19.42-53.68,39.41-70.17,76.27-8.25,18.43-11.33,35.53-15.06,56.24-5.38,29.9-4.91,49.7-6.63,49.69-1.88,0-6.24-23.71-2.41-50.9,4.65-33.04,18.59-51.4,15.36-53.61-4.23-2.88-34.92,23.91-55.71,63.24-8.27,15.64-35.94,72.9-19.27,142.75,3.45,14.47,8.58,35.09,24.09,56.92,26.63,37.48,63.96,50.51,97.88,62.34,37.24,12.99,63.41,22.13,85.53,8.73,19.57-11.85,25.41-34.95,29.51-51.2,11.37-44.97-6.71-87.08-9.64-93.66-5.74-12.91-9.81-16.79-13.25-30.42-7.21-28.57,1.31-48.62-3.92-50.59-5.81-2.19-20.61,21.03-29.51,38.85-12.32,24.67-15.24,42.77-16.56,42.46-1.56-.36-.44-26.22,11.75-53.91,7.5-17.03,16.34-28.27,25.6-40.05,4.66-5.92,6.47-7.73,46.38-48.49,8.74-8.93,18.04-17.31,26.5-26.5,17.04-18.52,21.66-26.7,28.91-25.9,7.05.78,8.15,9.13,21.38,26.2,3.93,5.08,10.65,11.82,24.09,25.3,31.43,31.53,31.5,28.34,34.93,34.93,9.08,17.4,6.86,36.21,4.52,56.02-1.63,13.83-4.1,20.69-8.43,37.04-12.32,46.5-18.68,70.52-14.24,98.56,2,12.64,5.62,35.55,23.27,46.59,6.39,4,16.76,7.78,34.93,5.12,59.34-8.7,182.11-83.24,166.84-138.83-4.28-15.59-18.81-27.45-44.57-48.49-25.87-21.12-47.68-30.91-46.98-32.22.73-1.38,27.75,4.46,51.2,25,15.97,13.98,21.49,27.08,37.34,29.21,1.91.26,13.42,1.8,20.48-4.82,11.42-10.71,3.74-35.81,0-47.58-13.83-43.49-80.29-190.63-184.31-201.48-11.88-1.24-39.13-4.08-55.71,12.95-13.82,14.19-13.35,35.12-13.25,39.54.73,32.42,25.96,51.54,22.89,54.42-3.55,3.33-41.22-18.62-54.21-58.42-3.73-11.43-4.24-20.69-4.46-25.27-2.26-47.26-.4-101.52,1.12-134.03,1.59-3.2,3.85-8.06,6.05-14.17,11.47-31.81,14.65-78.64-5.41-90.65-7.21-4.32-17.17-3.98-18.68-3.92Z"/>
    <path class="cls-4" d="m1.45,610.57c1.93,0,1.93-3,0-3s-1.93,3,0,3h0Z"/>
  </g>
  <g id="Layer_2" data-name="Layer 2">
    <path class="cls-1" d="m1073.9,468.22c-1-5.42-2.02-10.37-2.99-14.79-1.69-7.69-3.38-14.4-4.86-19.91-1.44-5.36-2.84-10.17-4.11-14.33-1.83-5.99-4.02-12.72-6.63-20.01-1.82-5.07-4.96-13.56-9.27-23.72-7.29-17.18-14.4-30.86-18.94-39.18-5.44-9.98-16.27-28.93-32.65-51.24-5.03-6.85-12.38-16.47-21.47-27.05-28.9-33.68-57.31-56.17-70.11-65.82-34.57-26.05-65.01-41.07-78.61-47.39-10.78-5.01-49.48-22.45-103.92-33.03-56.78-11.03-100.94-8.81-112.28-8.12-13.4.81-47.83,3.54-90.66,15.49-49.45,13.8-85.25,32.96-102.17,42.73-7.02,4.06-36.89,21.59-69.66,49.97-17.3,14.99-29.87,28.2-34.89,33.58-9.89,10.61-17.98,20.32-24.23,28.25-4.97,6.3-12.03,15.61-19.81,27.18-5.4,8.02-9.67,14.94-12.57,19.79-2.47,4.13-4.49,7.65-5.9,10.16,0,0-4.7,8.34-9.03,16.86-10.4,20.47-19.69,44.64-19.69,44.64-10.84,28.24-17.59,54.23-22.29,82.61-.82,4.97-1.79,11.39-.33,11.9,5.73,1.97,42.31-89.37,83.77-150.24,6.76-9.92,16.15-19.57,35.01-38.8,9.05-9.22,18.57-18.35,33.29-21.77,5-1.16,14.87-3.46,19.69,1.52,7.91,8.16-3.51,29.99-5.1,33.03-9.33,17.83-19.48,20.7-33.62,36.04-19.15,20.78-31.14,48.73-26.3,52.94,1.38,1.2,5.78,1.88,57.49-38.73,31.38-24.64,47.07-36.97,55.62-46.42,30.94-34.19,25.67-55.63,44.1-84.07,48.96-75.58,181.98-72.15,218.41-71.21,49.7,1.28,88.16,12.29,108.63,19.24,77.83,26.41,125.52,72.14,160.96,106.87,64.07,62.79,102.3,130.44,125.12,183.01Z"/>
    <path class="cls-3" d="m198.24,630.7c1.44,7.87,3.38,17.24,6,27.73,3.46,13.84,7.29,26.31,11.09,37.29,1.6,4.63,5.27,14.99,10.49,27.37,15.1,35.82,32.4,62.9,40.16,74.5,12.42,18.6,24.13,33.11,32.61,42.99,26.8,31.22,52.87,52.82,70.11,65.82,31.63,23.83,60.27,38.8,78.61,47.39,20.66,9.68,56.4,24.47,103.29,33.65,47.85,9.36,87.79,9.05,112.92,7.5,23.77-1.46,55.32-5.33,91.25-15.29,43.41-12.03,77.96-28.72,102.62-42.88,20.8-11.94,61.38-37.48,102.08-80.52,20.93-22.13,35.88-42.54,45.16-56.23,8.67-12.79,20.82-32.13,32.63-56.64,7.59-15.74,12.85-29.07,15.88-37.18,1.57-4.2,5.27-14.3,9.28-27.53,2.96-9.76,4.86-17.19,5.41-19.33,1.56-6.14,3.63-14.88,5.62-25.48,1.01-5.35,1.76-9.95,2.32-13.51.76-4.33,1.45-9.74.1-10.23-2.66-.95-11.58,17.77-15.68,26.29-20.92,43.52-42.21,87.42-69.22,125.58-8.02,11.32-17.03,20.47-35.01,38.8-9.05,9.22-18.57,18.35-33.29,21.77-5,1.16-14.87,3.46-19.69-1.52-7.91-8.16,3.51-29.99,5.1-33.03,9.33-17.83,19.48-20.7,33.62-36.04,19.15-20.78,31.14-48.73,26.3-52.94-1.38-1.2-5.78-1.88-57.49,38.73-31.38,24.64-47.07,36.97-55.62,46.42-30.94,34.19-25.67,55.63-44.1,84.07-48.96,75.58-181.98,72.15-218.41,71.21-49.7-1.28-88.16-12.29-108.63-19.24-77.97-26.46-125.74-72.31-160.96-106.87-64.05-62.84-102.02-130.49-124.55-182.67Z"/>
  </g>
</svg>