<?xml version="1.0" encoding="UTF-8"?>
<svg xmlns="http://www.w3.org/2000/svg" viewBox="0 0 1178.42 1046.44">
  <defs>
    <style>
      .cls-1 {
        fill: #00adef;
      }

      .cls-2 {
        fill: #f9a72b;
      }

      .cls-3 {
        fill: #2daf9c;
      }

      .cls-4 {
        fill: #80cc28;
      }
    </style>
  </defs>
  <g id="Layer_3" data-name="Layer 3">
    <path class="cls-4" d="m627.87,175.76s-10.3.45-19.76,6.41c-14.2,8.96-18.2,45.05-5.54,88.45,2.51,5.02,5.02,10.04,7.53,15.06v130.7c-5.66,33.37-18.28,55.22-28.01,68.36-8.47,11.44-25.56,30.89-31.32,27.71-3.16-1.75-1.88-9.72-1.51-12.05,2.21-13.8,11.56-20.67,17.17-28.01,13.74-17.98,14.65-51.29-.9-68.06-13.94-15.03-37.48-12.84-42.76-12.35-9.68.9-20.91,4.21-43.07,20.48-26.45,19.42-53.68,39.41-70.17,76.27-8.25,18.43-11.33,35.53-15.06,56.24-5.38,29.9-4.91,49.7-6.63,49.69-1.88,0-6.24-23.71-2.41-50.9,4.65-33.04,18.59-51.4,15.36-53.61-4.23-2.88-34.92,23.91-55.71,63.24-8.27,15.64-35.94,72.9-19.27,142.75,3.45,14.47,8.58,35.09,24.09,56.92,26.63,37.48,63.96,50.51,97.88,62.34,37.24,12.99,63.41,22.13,85.53,8.73,19.57-11.85,25.41-34.95,29.51-51.2,11.37-44.97-6.71-87.08-9.64-93.66-5.74-12.91-9.81-16.79-13.25-30.42-7.21-28.57,1.31-48.62-3.92-50.59-5.81-2.19-20.61,21.03-29.51,38.85-12.32,24.67-15.24,42.77-16.56,42.46-1.56-.36-.44-26.22,11.75-53.91,7.5-17.03,16.34-28.27,25.6-40.05,4.66-5.92,6.47-7.73,46.38-48.49,8.74-8.93,18.04-17.31,26.5-26.5,17.04-18.52,21.66-26.7,28.91-25.9,7.05.78,8.15,9.13,21.38,26.2,3.93,5.08,10.65,11.82,24.09,25.3,31.43,31.53,31.5,28.34,34.93,34.93,9.08,17.4,6.86,36.21,4.52,56.02-1.63,13.83-4.1,20.69-8.43,37.04-12.32,46.5-18.68,70.52-14.24,98.56,2,12.64,5.62,35.55,23.27,46.59,6.39,4,16.76,7.78,34.93,5.12,59.34-8.7,182.11-83.24,166.84-138.83-4.28-15.59-18.81-27.45-44.57-48.49-25.87-21.12-47.68-30.91-46.98-32.22.73-1.38,27.75,4.46,51.2,25,15.97,13.98,21.49,27.08,37.34,29.21,1.91.26,13.42,1.8,20.48-4.82,11.42-10.71,3.74-35.81,0-47.58-13.83-43.49-80.29-190.63-184.31-201.48-11.88-1.24-39.13-4.08-55.71,12.95-13.82,14.19-13.35,35.12-13.25,39.54.73,32.42,25.96,51.54,22.89,54.42-3.55,3.33-41.22-18.62-54.21-58.42-3.73-11.43-4.24-20.69-4.46-25.27-2.26-47.26-.4-101.52,1.12-134.03,1.59-3.2,3.85-8.06,6.05-14.17,11.47-31.81,14.65-78.64-5.41-90.65-7.21-4.32-17.17-3.98-18.68-3.92Z"/>
    <path class="cls-3" d="m1.45,610.57c1.93,0,1.93-3,0-3s-1.93,3,0,3h0Z"/>
  </g>
  <g id="Layer_2" data-name="Layer 2">
    <path class="cls-1" d="m1072.55,468.1c-4.68-26.29-12.77-58.06-27.12-92.5-10.93-26.24-32.61-71.11-72.45-117.61-14.65-17.1-37.76-41.44-70.11-65.82-35.3-26.6-66.2-41.64-78.61-47.39-8.27-3.83-47.81-21.81-104.18-32.73-21.59-4.18-60.55-11.46-112.02-8.42-12.49.74-47.23,3.36-90.66,15.49-47.79,13.35-83.21,31.83-102.17,42.73-21.35,12.28-91.67,55.15-148.22,139.04-5.81,8.62-27.83,42.45-46.58,91.35-18.07,47.13-27.32,93.34-23.6,94.57,5.53,1.82,45.33-93.81,83.77-150.24,6.76-9.92,16.15-19.57,35.01-38.8,9.05-9.22,18.57-18.35,33.29-21.77,5-1.16,14.87-3.46,19.69,1.52,7.91,8.16-3.51,29.99-5.1,33.03-9.33,17.83-19.48,20.7-33.62,36.04-19.15,20.78-31.14,48.73-26.3,52.94,1.38,1.2,5.78,1.88,57.49-38.73,31.38-24.64,47.07-36.97,55.62-46.42,30.94-34.19,25.67-55.63,44.1-84.07,48.96-75.58,181.98-72.15,218.41-71.21,49.7,1.28,88.16,12.29,108.63,19.24,78.28,26.56,126.22,72.69,160.96,106.87,64.27,63.22,101.82,131.25,123.78,182.89Z"/>
    <path class="cls-2" d="m199.01,630.47c4.68,26.29,12.77,58.06,27.12,92.5,10.93,26.24,32.61,71.11,72.45,117.61,14.65,17.1,37.76,41.44,70.11,65.82,35.3,26.6,66.2,41.64,78.61,47.39,8.27,3.83,47.81,21.81,104.18,32.73,21.59,4.18,60.55,11.46,112.02,8.42,12.49-.74,47.23-3.36,90.66-15.49,47.79-13.35,83.21-31.83,102.17-42.73,21.35-12.28,91.67-55.15,148.22-139.04,5.81-8.62,27.83-42.45,46.58-91.35,18.07-47.13,27.32-93.34,23.6-94.57-5.53-1.82-45.33,93.81-83.77,150.24-6.76,9.92-16.15,19.57-35.01,38.8-9.05,9.22-18.57,18.35-33.29,21.77-5,1.16-14.87,3.46-19.69-1.52-7.91-8.16,3.51-29.99,5.1-33.03,9.33-17.83,19.48-20.7,33.62-36.04,19.15-20.78,31.14-48.73,26.3-52.94-1.38-1.2-5.78-1.88-57.49,38.73-31.38,24.64-47.07,36.97-55.62,46.42-30.94,34.19-25.67,55.63-44.1,84.07-48.96,75.58-181.98,72.15-218.41,71.21-49.7-1.28-88.16-12.29-108.63-19.24-78.28-26.56-126.22-72.69-160.96-106.87-64.27-63.22-101.82-131.25-123.78-182.89Z"/>
  </g>
</svg>